<svg xmlns="http://www.w3.org/2000/svg" viewBox="0 0 2603.14 1065.36" style="width:260px;height:103px;x:0;y: 0;"><defs><style>.cls-1{fill:#a0a0a0;}.cls-2{fill:#dedede;}.cls-3{fill:#ffffff;}.cls-4{fill:#030303;}.cls-5{fill:#010101;}.cls-6{fill:#040404;}.cls-7{fill:#4c771d;}.cls-8{fill:#7bc33b;}.cls-9{fill:#c8ed23;}.cls-10{fill:#86b95b;}.cls-11{fill:#c9ee24;}</style></defs><path class="cls-1" d="M1643.46,217.85c0,2.08.08,4.16.08,6.24V547.54c0,1.12-.07,2.24,0,3.36.15,2-.68,3.19-2.45,4.19-16,9.06-32,18-47.79,27.38-10.7,6.37-21.59,12.4-32.33,18.7-9.77,5.74-19.71,11.18-29.52,16.84-10.51,6.07-20.92,12.3-31.44,18.34-9.55,5.49-19.41,10.49-28.74,16.32-9,5.58-18.39,10.29-27.32,15.89-4.19,2.63-8.63,4.86-12.92,7.32q-20.35,11.68-40.68,23.41c-12.3,7.11-24.58,14.23-36.8,21.46a3,3,0,0,1-3.78,0c-8.07-4.88-16.42-9.3-24.47-14.18-9.83-6-19.94-11.42-29.89-17.14-9.55-5.47-18.94-11.26-28.71-16.36-6.65-3.47-12.94-7.63-19.56-11.16-9.87-5.24-19.31-11.19-29.1-16.56-18.19-10-36-20.63-54-30.95-10-5.72-20.11-11.1-29.91-17.07-8.72-5.32-17.85-9.89-26.56-15.24-10.06-6.18-20.46-11.84-30.89-17.4-5.78-3.08-10.92-7.23-16.93-9.9a3.22,3.22,0,0,1-2-3.45c0-.8,0-1.6,0-2.4V221.69c0-1.28,0-2.56.08-3.84.73.28,1.48.53,2.2.84,5.15,2.2,9.45,5.9,14.42,8.37,9.56,4.76,18.71,10.26,28,15.54,10.92,6.23,21.83,12.48,32.82,18.54,14.77,8.14,29.37,16.58,44.13,24.72,5.85,3.22,12,5.93,17.59,9.55,7.88,5.11,16.56,8.77,24.37,13.94,4.25,2.82,9.2,4.36,13.22,7.55a181.24,181.24,0,0,1-19.77,11.28c-6.64,3.42-12.93,7.45-19.61,10.81-2.81,1.42-5.8,2.61-8.39,4.46-4.79,3.44-10.13,5.9-15.23,8.79-6.75,3.84-13.67,7.4-20.49,11.14-5.12,2.8-10.2,5.69-15.3,8.54l-16.61,9.27c-1.38,1.69-.73,3.69-.73,5.54q-.06,61.17,0,122.33c0,1.76.09,3.53,0,5.28-.15,2.36.7,4.15,2.93,4.95,5.61,2,9.84,6.27,15,9,5.35,2.8,10.46,6.07,15.57,9.29,3.64,2.29,7.75,3.87,11.18,6.33,9.33,6.68,19.49,12,29.1,18.22,8,5.15,16.27,10,24.6,14.6,4.84,2.7,10.06,4.83,14,9,1,1.07,2.37.74,3.59,1,.58,1.66,1.51,2.2,3,.9,2.34-.74,3.94-2.64,6-3.86,10.21-6.09,20.27-12.44,30.57-18.38,5.24-3,9.93-6.91,15.23-9.76,6.31-3.39,12.16-7.49,18.36-11s11.94-7.26,17.88-10.94l26.27-16.28c5.12,3.18,10.08,6.59,15.45,9.39,8,4.18,15.16,9.77,23,14.33,12.48,7.28,24.62,15.15,36.77,22.95,2.82,1.81,5.87,3.15,8.72,4.87,3.68,2.23,6.82,5.3,10.69,7.07,7,3.19,12.84,8.15,19.64,11.57a2.89,2.89,0,0,0,2.32-.15c6.83-4,13.63-8,20.55-11.92,7.89-4.42,15.41-9.51,23.47-13.68,2.38-1.23,4.33-3.29,6.72-4.49,11.79-5.92,22.88-13.06,34.26-19.68,10-5.82,19.85-12,30-17.5,3.52-1.91,4.57-4,4.56-7.87-.13-41.72-.08-83.44-.08-125.17,0-1.12,0-2.23,0-3.35a1.75,1.75,0,0,0-1.33-1.76,5.62,5.62,0,0,0-2.93-3c-4.51-2-8.64-4.78-13.06-6.77-6.12-2.75-11.6-6.52-17.54-9.52-9.49-4.79-18.67-10.19-28.15-15-6.76-3.43-12.8-8.21-20.08-10.66a10.26,10.26,0,0,1-1.66-.95c-6.07-3.43-12-7.2-18.26-10.21-5.6-2.67-11.14-5.33-16.07-9.14,1.28-2.12,3.73-2.28,5.63-3.37,13.69-7.79,27.35-15.65,41-23.45,3.32-1.89,6.78-3.55,10.11-5.45,10.24-5.84,20.41-11.79,30.66-17.61,9.85-5.58,19.78-11,29.63-16.57,10.26-5.79,20.58-11.48,30.68-17.54,5.74-3.44,12-5.89,17.45-9.9C1636.64,220.75,1639.77,218.63,1643.46,217.85Z" transform="translate(-49.14 -37.66)"/><path class="cls-2" d="M1643.46,217.85c-3.69.78-6.82,2.9-9.71,5-5.45,4-11.71,6.46-17.45,9.9-10.1,6.06-20.42,11.75-30.68,17.54-9.85,5.56-19.78,11-29.63,16.57-10.25,5.82-20.42,11.77-30.66,17.61-3.33,1.9-6.79,3.56-10.11,5.45-13.69,7.8-27.35,15.66-41,23.45-1.9,1.09-4.35,1.25-5.62,3.37-.26.05-.52.11-.77.18-.68-2-.41-4.12-.41-6.18q0-62.52,0-125c0-1.28,0-2.56,0-3.83a1.85,1.85,0,0,0-1.27-1.81,5.89,5.89,0,0,0-1.18-1.45c-6.21-3.88-12.47-7.65-18.66-11.54-10.5-6.59-20.94-13.26-31.44-19.85-3.35-2.11-6.95-3.85-10.15-6.17-7.44-5.39-15.67-9.5-23.27-14.65-8.12-5.51-16.73-10.33-25-15.68a8,8,0,0,0-9-.26c-3.26,2-6.52,4-9.63,6.18-6.47,4.59-13.69,7.93-20.15,12.64a200,200,0,0,1-18.16,11.24c-11,6.35-21.18,14-32.41,20-3.69,2-6.68,4.88-10.37,6.77a127,127,0,0,0-20.28,13.11,5.13,5.13,0,0,0-.16.94q0,59.34.06,118.68c0,5.58-.06,11.16-.1,16.74l-1.66.12c-4-3.19-9-4.73-13.22-7.55-7.81-5.17-16.49-8.83-24.37-13.94-5.58-3.62-11.74-6.33-17.59-9.55-14.76-8.14-29.36-16.58-44.13-24.72-11-6.06-21.9-12.31-32.82-18.54-9.26-5.28-18.41-10.78-28-15.54-5-2.47-9.27-6.17-14.42-8.37-.72-.31-1.47-.56-2.2-.84,0-1.85,1.62-2.32,2.74-3,5.41-3.36,11-6.41,16.35-9.88,10.14-6.61,20.79-12.36,30.9-19,4.63-3.06,9.86-5.25,14.44-8.45,7.44-5.18,15.53-9.3,23.11-14.27,4.88-3.2,10-6.14,15.18-8.91,5-2.69,9.42-6.48,14.52-9.18,7.88-4.17,15.43-9,22.87-13.86,9.74-6.36,20-11.74,29.74-18.17,10.87-7.21,22.41-13.42,33.43-20.42,8.33-5.29,16.87-10.24,25.29-15.37,10-6.14,20-12.53,30.3-18.26,7-3.85,13.31-8.72,20.31-12.56,4.45-2.43,8.7-5.22,12.93-8,1.6-1.06,2.72-1.1,4.25.08,6.6,5.06,14.09,8.72,21,13.24,7.62,5,15.52,9.41,23.18,14.28q9.06,5.76,18.31,11.17c8.23,4.82,16,10.48,24.26,15.19,11.64,6.61,22.54,14.38,34.29,20.81,5,2.74,9.62,6.16,14.56,9,7.56,4.42,15.15,8.83,22.38,13.75,8.68,5.91,18,10.66,26.78,16.49,10.6,7.08,21.8,13.23,32.67,19.88,8.94,5.48,17.77,11.14,26.68,16.66,4.59,2.85,9.33,5.46,13.87,8.39,6.16,4,12.37,7.82,18.78,11.39,4,2.23,7.5,5.39,11.73,7.35C1643.31,216.48,1643.41,217.2,1643.46,217.85Z" transform="translate(-49.14 -37.66)"/><path class="cls-3" d="M586.46,968.84l109.8,94.78c-.67,1.41-1.77,1-2.63,1l-75.83,0a6.81,6.81,0,0,1-5.06-1.93c-7.1-6.4-14.56-12.41-21.79-18.69-10.47-9.1-21-18.1-31.55-27.17-9.06-7.81-18.18-15.54-27.15-23.44-8.61-7.58-17.41-14.95-26-22.54a9.49,9.49,0,0,0-6.88-2.57c-10.08.13-20.16.07-30.24,0-3.93,0-4-.06-4-4q-.06-22.56,0-45.11c0-4.59,0-4.62,4.83-4.62q55.92,0,111.82,0a55.41,55.41,0,0,0,25.93-5.94c14.41-7.47,22.82-19.17,23-35.87.16-12.79.09-25.59.12-38.39,0-8.68-2.38-9.49-11-11.39A18.21,18.21,0,0,0,616,823H449.47c-5.9,0-5.93-1.06-5.93,5.95q0,114.95,0,229.88c0,6.68.76,5.81-5.89,5.83q-21.84.06-43.67,0c-3.92,0-4-.05-4-4,0-8.64,0-17.28,0-25.92q0-117.33,0-234.68c0-5.44.26-10.8,3.09-15.77,5.34-9.38,13.07-14.5,24.06-14.48,25.12,0,50.23,0,75.35,0q62.87,0,125.74,0c8,0,16,.6,23.66,3.17a62.29,62.29,0,0,1,21.25,12.53c11,9.62,17.19,22,20,36.19a69.31,69.31,0,0,1,1.38,13.33c0,12.48,0,25-.07,37.43a94.91,94.91,0,0,1-2.33,21.41c-2.93,12.17-7.67,23.51-15.24,33.73A98.12,98.12,0,0,1,649.54,946c-14.27,11.5-30.8,17.91-48.84,20.58C596.31,967.25,591.94,968,586.46,968.84Z" transform="translate(-49.14 -7.66)"/><path class="cls-3" d="M1511.59,1064.65H1410.32c-1.12,0-2.25-.08-3.36,0-2.19.18-3.17-.57-3.16-3q.12-24,0-48c0-2.07.82-2.91,2.85-2.78,1.27.08,2.56,0,3.84,0h196.78a50.77,50.77,0,0,0,14.25-1.57,26.93,26.93,0,0,0,15.35-11.51c8-12.18,8-31.16-2.89-43.86-5.27-6.15-12.43-8.75-20.33-9.45-2.39-.22-4.8-.15-7.2-.15-38.55,0-77.11.07-115.67,0a100,100,0,0,1-44.48-10c-12.57-6.22-22.71-15.42-30.9-27.18-12-17.25-14.71-36.41-13.88-56.56.51-12.24,2.74-24.14,8.7-35.05,6.1-11.19,13.87-21.09,24.2-28.64a91,91,0,0,1,14.9-8.58c14.23-6.76,29.21-8.56,44.72-8.52,56.32.14,112.63.05,169,.06,6.52,0,5.8-.78,5.81,6q0,21.11,0,42.23c0,5.19.64,4.93-4.88,4.93H1516.11c-8.8,0-17.6.13-26.39,0a46.66,46.66,0,0,0-14.59,2.39c-10.58,3.22-16.7,10.83-19.46,21.16-1.57,5.89-1.42,12-.65,18.1,1.11,8.72,5.9,15.08,12.36,20.3,4.33,3.51,9.8,4.58,15.27,5,2.86.24,5.76.18,8.64.18q57.82,0,115.67,0a106.87,106.87,0,0,1,23.77,2.67,71.16,71.16,0,0,1,11.17,4,81.39,81.39,0,0,1,30.1,20.79c17.84,19.79,25.42,43,23.33,69.64-1.23,15.58-6.07,29.76-15.15,42.3a80.43,80.43,0,0,1-20.55,19.82c-10,6.7-21,10.36-32.6,13.13-8.7,2.09-17.39,2.16-26.17,2.16Q1556.22,1064.67,1511.59,1064.65Z" transform="translate(-49.14 -7.66)"/><path class="cls-3" d="M888.08,765.58h34.07c15.45,0,30.71,1.77,45.29,6.87a122.09,122.09,0,0,1,31.23,16.15,106,106,0,0,1,19.46,17.6,122.26,122.26,0,0,1,19.06,30.16,129,129,0,0,1,9.76,36.37,158,158,0,0,1,.93,18.19q.06,26.39,0,52.78c0,13.49-1.28,26.86-5.21,39.78-4.6,15.09-11.5,29.07-21.64,41.3a118.2,118.2,0,0,1-29.84,25.83c-8.42,5.12-17.38,8.58-26.53,11.93-13.43,4.91-27.36,6.26-41.45,6.37-22.87.19-45.74.08-68.61,0-11.55,0-23.07-1-34.18-4.1-14.15-4-27.73-9.44-39.95-18-11.66-8.13-21.3-18.17-29.75-29.46a74.27,74.27,0,0,1-4-6.54c-11.91-19.81-17.19-41.38-17.16-64.39,0-19.67,0-39.34,0-59,0-16.29,2.41-32.24,8.78-47.28,5.55-13.11,12.7-25.41,22.58-35.83a123.82,123.82,0,0,1,39.09-27.67c17.43-8,35.64-10.7,54.44-11.09C865.69,765.39,876.89,765.58,888.08,765.58Zm.3,249.3c12.48,0,25,.15,37.43,0,15-.22,29-3.44,41.48-12.48,6.44-4.67,12.18-9.92,16.33-16.54a68.67,68.67,0,0,0,10.91-36.28c.18-21.76.54-43.53-.1-65.27-.49-16.49-5.72-31.57-17.38-44-9.38-10-20.93-16-34-19.37-6.4-1.67-13-1.91-19.52-1.92-22.55,0-45.11.05-67.67,0-11.24,0-22.21,1-32.66,5.69s-20.14,10.64-26.82,20.19c-7.81,11.16-12.87,23.46-13.24,37.35-.55,20.8-.23,41.59-.2,62.39,0,11.53,1.46,22.67,6.72,33.39,5.54,11.29,13.17,20.25,23.78,26.74,11.78,7.21,24.76,10.07,38.43,10.11C864.06,1014.91,876.22,1014.88,888.38,1014.88Z" transform="translate(-49.14 -7.66)"/><path class="cls-3" d="M2357.34,948.38q0-50.88,0-101.75c0-10.48,1.22-20.63,5.07-30.52a71.63,71.63,0,0,1,16.84-25.27c5.63-5.55,12.25-9.51,19.3-13.08,11.75-5.94,24.15-7.93,37.08-7.92q57.82,0,115.66,0c9.15,0,18.27.44,27.19,2.49,16.06,3.69,29.92,11.61,42.11,22.58a89.34,89.34,0,0,1,14,16.85c12.58,18.66,17.56,39.44,17.61,61.62,0,10.71.28,21.42-.66,32.13-1.31,14.93-5.64,28.92-13.67,41.45a93.21,93.21,0,0,1-15.54,18.65c-16.05,14.69-35.08,22-56.2,25.42-8,1.29-15.89,1.36-23.86,1.37q-51.6.06-103.19,0c-1,0-1.92,0-2.88,0-3.58-.08-3.66-.09-3.67-3.82,0-15.51,0-31,0-46.55,0-2.44.67-3.6,3.23-3.33a31.37,31.37,0,0,0,3.36,0q55.44,0,110.87,0a55.58,55.58,0,0,0,25.49-5.86c14.39-7.35,22.32-19.27,22.86-35.55.35-10.7.27-21.44,0-32.15a42.62,42.62,0,0,0-6.67-22.7c-5.85-8.9-14-14.91-24.42-17.24a80.26,80.26,0,0,0-18-2.29q-56.86.2-113.74,0a40.43,40.43,0,0,0-14,2.69c-4.69,1.69-7.55,5.15-9,9.86-1.32,4.19-1.32,8.5-1.32,12.82v209.26c0,1.12,0,2.24,0,3.36-.09,3.66-.1,3.72-3.73,3.73q-22.8,0-45.6,0c-4.37,0-4.47.49-4.42-4.44,0-1.12,0-2.24,0-3.36Z" transform="translate(-49.14 -7.66)"/><path class="cls-3" d="M49.15,947.7q0-50.16,0-100.31c0-8.17.46-16.33,2.54-24.24,3.11-11.8,9.27-21.86,17.68-30.74,8.6-9.1,19.26-14.64,30.74-18.75a68.71,68.71,0,0,1,23.1-3.79q62.62,0,125.27,0a88.13,88.13,0,0,1,25.62,3.37,96.28,96.28,0,0,1,30.18,15.08,113.83,113.83,0,0,1,16.67,15.71c.63.72,1.22,1.48,1.79,2.25a99.14,99.14,0,0,1,20,52.52c1.47,18.52,1.57,37.06-1,55.53a70.92,70.92,0,0,1-6.44,22c-5.25,10.6-11.77,20.36-20.55,28.54-15.88,14.79-34.85,22.42-56,26-8.93,1.5-17.79,1.48-26.72,1.49q-51.36.06-102.71,0c-5.18,0-5.4,1.23-5.39-5.45q0-21.35,0-42.71c0-6.14-.32-5.51,5.33-5.51H241.19a56.06,56.06,0,0,0,22.45-4.37c15.36-6.65,25.28-17.82,26.3-35.08a293.76,293.76,0,0,0-.14-37.88c-.6-8.54-4-15.87-9.31-22.58-5.94-7.53-13.65-11.84-22.83-13.85a82.66,82.66,0,0,0-18-2q-55.91.17-111.83,0A44.14,44.14,0,0,0,114.61,825c-5.83,1.77-9.27,6-11,11.71-1.09,3.57-1,7.26-1,10.94q0,105.36,0,210.7c0,7.25,1,6.27-6.39,6.3-13.92,0-27.84,0-41.76,0-5.29,0-5.25.72-5.25-5.12q0-45.35,0-90.71Q49.14,958.26,49.15,947.7Z" transform="translate(-49.14 -7.66)"/><path class="cls-3" d="M2183.78,769.85h117.57c5.64,0,5.21-.28,5.21,5.17q0,22.08,0,44.15c0,3.71-.06,3.72-3.63,3.81-1.12,0-2.24,0-3.36,0H2099c-1,0-1.92,0-2.88,0-3.55.07-3.55.08-3.66,3.81,0,.64,0,1.28,0,1.92q0,78.69,0,157.4c0,4-.2,8,1,11.9,2.1,6.73,6.57,10.75,13.44,12.19a51.36,51.36,0,0,0,10.51.75h182.84c7.25,0,6.28-.72,6.3,6.45q.06,21.12,0,42.23c0,5,0,5-4.87,5h-80.62q-52.54,0-105.1,0c-15.49,0-30.26-3.66-43.35-11.85-18.69-11.7-30.1-28.58-32.84-50.85a140,140,0,0,1-.84-17.24q0-92.38,0-184.76a52.66,52.66,0,0,1,.76-9.53c1.81-9.88,12.15-20.37,24.11-20.49,2.07,0,4.15-.06,6.23-.06Z" transform="translate(-49.14 -7.66)"/><path class="cls-3" d="M1856.38,769.85h137.24c1.12,0,2.24,0,3.36,0,3.61.09,3.68.1,3.68,3.79q0,22.3,0,44.62c0,4.63.66,4.71-4.66,4.71h-94.53c-5,0-9.92,0-14.88,0-3.85,0-3.85.07-3.92,4.06,0,.8,0,1.6,0,2.4q0,114.69,0,229.37c0,6.9.73,5.79-5.83,5.82-14.24.06-28.47,0-42.71,0-4.87,0-5,.87-5-4.85q0-30.94,0-61.9V829.46c0-1.12,0-2.24,0-3.36.07-2.11-.67-3.36-3.05-3.14-1.11.1-2.24,0-3.36,0h-106c-6.14,0-5.31.38-5.32-5.47,0-14.24,0-28.47,0-42.71,0-5.24-.33-4.94,4.93-4.94Z" transform="translate(-49.14 -7.66)"/><path class="cls-3" d="M1101.7,927.73q0-64.05,0-128.11a45.72,45.72,0,0,1,1-10.47c2.07-8.9,11.2-18.53,22.6-19.14,1.92-.1,3.84-.15,5.75-.15h232.71c5.75,0,5.25-.3,5.25,5.12q0,22.06,0,44.14c0,3.75-.06,3.76-3.61,3.85-1.28,0-2.56,0-3.84,0H1160c-4.79.07-5.22-1.08-5.22,5.19q0,115.15,0,230.3c0,7,.91,6.15-6,6.17-14.23,0-28.47,0-42.7,0-4.46,0-4.33.49-4.33-4.49Q1101.72,993.94,1101.7,927.73Z" transform="translate(-49.14 -7.66)"/><path class="cls-3" d="M1260.42,944.4H1182.2c-1.12,0-2.24-.08-3.35,0-1.92.17-2.57-.8-2.56-2.54,0-2.88,0-5.76,0-8.64q0-18.94,0-37.91c0-6.12,0-5.22,5.11-5.22q46.78,0,93.57,0h64.78l3.36,0a1.62,1.62,0,0,1,1.78,1.77c0,1.12,0,2.24,0,3.36q0,21.84,0,43.67c0,6.25.44,5.47-5.31,5.48Q1300,944.43,1260.42,944.4Z" transform="translate(-49.14 -7.66)"/><path class="cls-3" d="M2198,944.4H2119.8a27.67,27.67,0,0,0-2.88,0c-2.2.22-3.15-.58-3.14-2.94q.1-24.22,0-48.47c0-2.39,1-3.13,3.14-2.92,1,.09,1.92,0,2.88,0q78.24,0,156.47,0c7,0,6.24-.82,6.25,6q0,21.36,0,42.72c0,1.12,0,2.24,0,3.36,0,1.63-.84,2.27-2.4,2.21-1.12,0-2.24,0-3.36,0Z" transform="translate(-49.14 -7.66)"/><path class="cls-7" d="M1586.3,382a1.75,1.75,0,0,1,1.33,1.76c0,1.12,0,2.23,0,3.35,0,41.73-.05,83.45.08,125.17,0,3.82-1,6-4.56,7.87-10.17,5.52-20,11.68-30,17.5-11.38,6.62-22.47,13.76-34.26,19.68-2.39,1.2-4.34,3.26-6.72,4.49-8.06,4.17-15.58,9.26-23.47,13.68-6.92,3.87-13.72,7.93-20.55,11.92a2.89,2.89,0,0,1-2.32.15q0-65.45.07-130.9c0-2.07.08-4.15.12-6.23,2.32,0,3.5-2.17,5.39-2.89,7.93-3,14.41-8.56,22-12.24a103.89,103.89,0,0,0,9.12-5.19c9.2-5.69,18.9-10.53,28.13-16.18,8.79-5.38,17.84-10.37,26.94-15.22,6.3-3.36,12.38-7.08,18.36-10.92C1579.29,385.64,1583.16,384.48,1586.3,382Z" transform="translate(-49.14 -37.66)"/><path class="cls-8" d="M1234.31,586.74c-1.22-.28-2.59,0-3.59-1-3.89-4.17-9.11-6.3-14-9-8.33-4.65-16.64-9.45-24.6-14.6-9.61-6.22-19.77-11.54-29.1-18.22-3.43-2.46-7.54-4-11.18-6.33-5.11-3.22-10.22-6.49-15.57-9.29-5.19-2.72-9.42-7-15-9-2.23-.8-3.08-2.59-2.93-4.95.11-1.75,0-3.52,0-5.28q0-61.17,0-122.33c0-1.85-.65-3.85.73-5.54.28,1.73,1.79,2.14,3,2.74a73.25,73.25,0,0,1,8.25,4.84q4.56,3,9.32,5.65c4,2.24,8.35,4,12.13,6.54,7.23,4.93,15,8.81,22.51,13.32,1.92,1.16,3.36,2.89,5.47,3.82,10.65,4.7,19.83,12,30.35,17,3.47,1.63,6.28,4.24,9.52,6.18,5.45,3.25,11.17,6.08,16.77,9.08l-.09,1.8c-1.69,1.58-.93,3.62-.94,5.45q-.06,61.64-.06,123.27C1235.4,582.84,1236.18,585.07,1234.31,586.74Z" transform="translate(-49.14 -37.66)"/><path class="cls-7" d="M1236.41,452.14l.09-1.8c6.15-4.54,13.19-7.59,19.53-11.89,7.19-4.87,15-8.91,22.58-13.23,9.21-5.26,18-11.18,27.31-16.29,8.77-4.82,17-10.53,25.91-15.22a8.88,8.88,0,0,0,1.64-.95c4.92-4,10.57-6.87,16.11-9.9l2,.12,0,0q0,67.19,0,134.38l-26.27,16.28c-5.94,3.68-11.81,7.48-17.88,10.94s-12,7.64-18.36,11c-5.3,2.85-10,6.73-15.23,9.76-10.3,5.94-20.36,12.29-30.57,18.38-2,1.22-3.65,3.12-6,3.86-1.43-1.67-.81-3.68-.81-5.53Q1236.4,517.13,1236.41,452.14Z" transform="translate(-49.14 -37.66)"/><path class="cls-9" d="M1586.3,382c-3.14,2.48-7,3.64-10.37,5.8-6,3.84-12.06,7.56-18.36,10.92-9.1,4.85-18.15,9.84-26.94,15.22-9.23,5.65-18.93,10.49-28.13,16.18a103.89,103.89,0,0,1-9.12,5.19c-7.55,3.68-14,9.24-22,12.24-1.89.72-3.07,2.89-5.39,2.89-2.51-2.54-5.87-3.7-8.87-5.47-8.88-5.22-17.89-10.25-26.55-15.83-8.29-5.35-17.22-9.64-25.21-15.44a22.6,22.6,0,0,0-4.33-2.93c-5.61-2.34-10.45-6-15.67-9-7.66-4.41-15.13-9.17-22.62-13.89-2.92-1.85-6.41-2.94-8.53-5.95,4.33-2.26,8.29-5.12,12.72-7.27,5.54-2.69,10.64-6.25,16.06-9.2,5.85-3.18,11.88-6.17,17.39-9.77,7.3-4.78,15.46-7.93,22.56-13.05,4.46-3.21,9.7-5.33,14.53-8.07,3-1.72,5.8-3.91,8.87-5.36a161.94,161.94,0,0,0,21.41-12.27c.25-.07.51-.13.77-.18,4.92,3.81,10.46,6.47,16.06,9.14,6.28,3,12.19,6.78,18.26,10.21a10.26,10.26,0,0,0,1.66.95c7.28,2.45,13.32,7.23,20.08,10.66,9.48,4.8,18.66,10.2,28.15,15,5.94,3,11.42,6.77,17.54,9.52,4.42,2,8.55,4.8,13.06,6.77A5.62,5.62,0,0,1,1586.3,382Z" transform="translate(-49.14 -37.66)"/><path class="cls-8" d="M1354.25,381.93c2.12,3,5.61,4.1,8.53,5.95,7.49,4.72,15,9.48,22.62,13.89,5.22,3,10.06,6.66,15.67,9a22.6,22.6,0,0,1,4.33,2.93c8,5.8,16.92,10.09,25.21,15.44,8.66,5.58,17.67,10.61,26.55,15.83,3,1.77,6.36,2.93,8.87,5.47,0,2.08-.12,4.16-.12,6.23q0,65.44-.07,130.9c-6.8-3.42-12.67-8.38-19.64-11.57-3.87-1.77-7-4.84-10.69-7.07-2.85-1.72-5.9-3.06-8.72-4.87-12.15-7.8-24.29-15.67-36.77-22.95-7.81-4.56-15-10.15-23-14.33-5.37-2.8-10.33-6.21-15.45-9.39q0-67.2,0-134.38Z" transform="translate(-49.14 -37.66)"/><path class="cls-9" d="M1349.58,382.86c-5.54,3-11.19,5.86-16.11,9.9a8.88,8.88,0,0,1-1.64.95c-8.87,4.69-17.14,10.4-25.91,15.22-9.3,5.11-18.1,11-27.31,16.29-7.57,4.32-15.39,8.36-22.58,13.23-6.34,4.3-13.38,7.35-19.53,11.89-5.6-3-11.32-5.83-16.77-9.08-3.24-1.94-6-4.55-9.52-6.18-10.52-4.94-19.7-12.28-30.35-17-2.11-.93-3.55-2.66-5.47-3.82-7.46-4.51-15.28-8.39-22.51-13.32-3.78-2.57-8.12-4.3-12.13-6.54q-4.76-2.67-9.32-5.65a73.25,73.25,0,0,0-8.25-4.84c-1.25-.6-2.76-1-3-2.74l16.61-9.27c5.1-2.85,10.18-5.74,15.3-8.54,6.82-3.74,13.74-7.3,20.49-11.14,5.1-2.89,10.44-5.35,15.23-8.79,2.59-1.85,5.58-3,8.39-4.46,6.68-3.36,13-7.39,19.61-10.81a181.24,181.24,0,0,0,19.77-11.28l1.66-.12a11.78,11.78,0,0,0,4.15,3.88c3.06,1.7,6.08,3.49,9.22,5,7.72,3.77,14.85,8.6,22.55,12.44,2.82,1.4,6.12,2.42,8.32,4.47,3.6,3.35,8,5.18,12.13,7.3,8.63,4.44,16.62,10,25.36,14.17,3.73,1.78,6.81,4.65,10.55,6.22,5.43,2.3,10.12,5.87,15.4,8.41C1346,379.69,1348.18,380.79,1349.58,382.86Z" transform="translate(-49.14 -37.66)"/><path class="cls-9" d="M1236.4,180.42a127,127,0,0,1,20.28-13.11c3.69-1.89,6.68-4.81,10.37-6.77,11.23-5.95,21.4-13.63,32.41-20a200,200,0,0,0,18.16-11.24c6.46-4.71,13.68-8,20.15-12.64,3.11-2.21,6.37-4.2,9.63-6.18a8,8,0,0,1,9,.26c8.24,5.35,16.85,10.17,25,15.68,7.6,5.15,15.83,9.26,23.27,14.65,3.2,2.32,6.8,4.06,10.15,6.17,10.5,6.59,20.94,13.26,31.44,19.85,6.19,3.89,12.45,7.66,18.66,11.54a5.89,5.89,0,0,1,1.18,1.45,151.6,151.6,0,0,1-15,9.11c-10,5.43-19.41,11.84-29.29,17.47-7.59,4.31-14.89,9.14-22.59,13.25-4.34,2.31-8.22,5.27-12.57,7.58-7.41,3.94-14.45,8.57-21.64,12.93-4.48,2.72-8.93,5.48-13.4,8.21a11.91,11.91,0,0,0-3.35-2.61c-5-2-9.51-5.1-14.06-7.91-9-5.58-18.32-10.65-27.24-16.39-6.63-4.27-13.74-7.89-20.5-12-6.1-3.71-12.57-6.78-18.36-11-4.26-3.1-9.36-4.78-13.71-7.68A160.62,160.62,0,0,0,1236.4,180.42Z" transform="translate(-49.14 -37.66)"/><path class="cls-7" d="M1351.63,248.65c4.47-2.73,8.92-5.49,13.4-8.21,7.19-4.36,14.23-9,21.64-12.93,4.35-2.31,8.23-5.27,12.57-7.58,7.7-4.11,15-8.94,22.59-13.25,9.88-5.63,19.27-12,29.29-17.47a151.6,151.6,0,0,0,15-9.11,1.85,1.85,0,0,1,1.27,1.81c0,1.27,0,2.55,0,3.83q0,62.51,0,125c0,2.06-.27,4.15.41,6.18a161.94,161.94,0,0,1-21.41,12.27c-3.07,1.45-5.85,3.64-8.87,5.36-4.83,2.74-10.07,4.86-14.53,8.07-7.1,5.12-15.26,8.27-22.56,13.05-5.51,3.6-11.54,6.59-17.39,9.77-5.42,3-10.52,6.51-16.06,9.2-4.43,2.15-8.39,5-12.72,7.27l-2.64,1.08,0,0Q1351.61,315.82,1351.63,248.65Z" transform="translate(-49.14 -37.66)"/><path class="cls-8" d="M1351.63,248.65q0,67.17-.05,134.33l-2-.12c-1.4-2.07-3.61-3.17-5.7-4.17-5.28-2.54-10-6.11-15.4-8.41-3.74-1.57-6.82-4.44-10.55-6.22-8.74-4.18-16.73-9.73-25.36-14.17-4.11-2.12-8.53-3.95-12.13-7.3-2.2-2-5.5-3.07-8.32-4.47-7.7-3.84-14.83-8.67-22.55-12.44-3.14-1.53-6.16-3.32-9.22-5a11.78,11.78,0,0,1-4.15-3.88c0-5.58.11-11.16.1-16.74q0-59.34-.06-118.68a5.13,5.13,0,0,1,.16-.94,160.62,160.62,0,0,1,18,10.64c4.35,2.9,9.45,4.58,13.71,7.68,5.79,4.21,12.26,7.28,18.36,11,6.76,4.12,13.87,7.74,20.5,12,8.92,5.74,18.23,10.81,27.24,16.39,4.55,2.81,9,5.93,14.06,7.91A11.91,11.91,0,0,1,1351.63,248.65Z" transform="translate(-49.14 -37.66)"/></svg>