<svg xmlns="http://www.w3.org/2000/svg" viewBox="0 0 3235.09 600.97" style="width:300px;height:56px;x:0;y:0;"><defs><style>.cls-1{fill:#9f9f9f;}.cls-2{fill:#3d3d3d;}.cls-3{fill:#ddd;}.cls-4{fill:#4b761c;}.cls-5{fill:#7bc23b;}.cls-6{fill:#c8ed23;}</style></defs><title>logo-top-b-space</title><path class="cls-1" d="M539.13,167.52c.88,0,1.73.2,1.79,1.29.09,1.32.08,2.66.08,4q0,143.19.11,286.39c0,4.12-1.45,6.17-4.81,8.1q-56.11,32.13-112.1,64.48-58.43,33.59-116.9,67.1c-6.91,4-13.85,7.89-20.61,12.09-2.58,1.6-4.45,1.72-7.19.15Q183.09,555.88,86.58,500.84q-29.91-17.07-59.9-34.06c-2.81-1.59-3.76-3.46-3.76-6.72q.15-143.7.15-287.39c0-1.58-1.52-4.29,1.93-4.62,4.67,4,10.35,6.41,15.66,9.4,37.19,20.9,74.42,41.71,111.53,62.73,9.07,5.14,18.54,9.61,27,15.75q-35,19.49-69.89,39C98.55,300.93,87.84,307,77.1,313q-.06,58.39-.18,116.79c0,2.63,1.28,3.72,3.29,4.93,20.25,12.14,40.35,24.55,60.68,36.56,13.36,7.89,26.33,16.46,40.13,23.6,2.58-1.43,5.23-2.76,7.74-4.3q47.1-28.83,94.17-57.71l101.09,62c7.29-2.67,13.57-7.24,20.2-11.08,27.76-16.06,55.25-32.58,83-48.75,2.83-1.65,3.89-3.28,3.88-6.54-.12-36.93-.07-73.86-.11-110.8,0-1.57.67-3.34-.81-4.69a11.66,11.66,0,0,0-2.15-2q-19.32-10.51-38.68-20.94l-63.48-34.28a12.45,12.45,0,0,1,1.88-1.59q67-37.84,134-75.72C527.66,175.12,534.33,172.76,539.13,167.52Z" transform="translate(-22.74 -11.27)"/><path class="cls-2" d="M996.67,184.93C1001,175,1008.19,169,1019.16,168c2-.19,4-.16,6-.16h197.92c16.71,0,31.74,4.16,44.71,15.23,11,9.39,17.44,21.31,20.07,35.22,3.65,19.25,2.23,38.7,1.29,58.1a102.51,102.51,0,0,1-4,23.32c-3.05,10.8-8.88,20-15.28,29-7.35,10.31-17.54,17.49-27.82,24.26-5.81,3.83-13,5.65-19.73,8a96.16,96.16,0,0,1-25.73,5c-1.18.08-2.32.87-4.09,1.56l108.89,94.1c-.93,1.43-2.39.7-3.54.7-24.66.05-49.32,0-74,.09a11.71,11.71,0,0,1-8.41-3.18c-25.55-22.21-51.26-44.22-76.91-66.32-9.79-8.44-19.64-16.83-29.2-25.53-1.59-1.45-2.92-1.22-4.41-1.24-10.16-.07-20.33,0-30.49,0-1.7,0-3.84.73-4.43-1.94q.2-25.59.37-51.16c1.82-.13,3.64-.35,5.46-.36,37.32,0,74.65.16,112-.09,18-.12,32.88-7.45,42.91-22.68,4-6,5.16-13.47,5.42-20.66.43-11.81.25-23.65.2-35.48,0-8.63-3.77-12.37-13-12.42-28.66-.18-57.32-.07-86-.07-27.83,0-55.66.1-83.48-.11-4.24,0-5.12,1.13-5.12,5.22.13,76.82.06,153.64.21,230.46,0,4.57-1.12,5.77-5.67,5.68-14.66-.31-29.33-.21-44,0-3.1,0-3.86-.83-3.86-3.89q.13-131.48.08-263c0-1.82.14-3.65.21-5.47a1.68,1.68,0,0,0,.3-2v-1.79Z" transform="translate(-22.74 -11.27)"/><path class="cls-2" d="M2223,462.07l-213.31.07c-.1-10.12-.34-20.24-.25-30.35.07-7.61-.67-15.25.45-22.84h202.47c9,0,17-1.84,24.21-7.47,5-3.94,7.52-9.22,9-15,3.39-13.59,2.2-26.38-8.93-36.35a31.69,31.69,0,0,0-21.73-8.19q-58.5,0-117,0c-6.34,0-12.62-.61-18.92-.94l-2-.62-3-.37a1.4,1.4,0,0,0-2-.19h0c-26.15-5.8-45.23-20.94-57.44-44.49-4.59-8.88-8-18.65-8.13-28.7-.12-7.86-.07-15.83.56-23.72a2,2,0,0,0,.26-2.15c.24-1.62.48-3.24.73-4.86.58-.61,1-1.24.29-2a59.46,59.46,0,0,1,8.94-24,115.64,115.64,0,0,1,8.65-12.41c9.13-11.21,20.58-18.66,33.89-23.63a98.66,98.66,0,0,1,34.81-6.12q87.24,0,174.48-.09c4,0,5.4.69,5.3,5.05-.31,14.5-.26,29,0,43.5.07,3.94-1,4.94-4.93,4.93-58.16-.13-116.32,0-174.48-.12-11.2,0-21.46,2.17-28.35,11.85-8.33,11.7-8.77,24.61-3.61,37.54,4.92,12.32,15.14,17.47,27.91,17.52,40.5.14,81,.06,121.49.09,43.48,0,79,28.29,87.06,71,7.33,39-7.75,76.19-46.16,94.7-9,4.32-18.51,6.43-28.2,8.11a1.46,1.46,0,0,0-2,.21Z" transform="translate(-22.74 -11.27)"/><path class="cls-2" d="M1440.88,465.49c-20-2.76-38.85-8.55-55.57-20.45a119.33,119.33,0,0,1-38.38-45.16c-4.87-9.84-7.6-20.19-10.49-30.58-1.09-3.92.3-8.25-1.24-12.22a1.78,1.78,0,0,0-.2-2.08V275c.16-1,.33-2,.49-3.07a95.09,95.09,0,0,1,7.82-33.94c7.09-16.06,16.09-31,29.34-42.86,19.06-17.07,41.47-26.88,66.77-30.23.82-.11,1.62-.35,2.43-.53a3.68,3.68,0,0,0,3.13-.43c24.87-1.36,49.76-.36,74.64-.68a238.58,238.58,0,0,1,24.36.8,4.08,4.08,0,0,0,3.14.38c22.62,3.49,43.52,11.1,61.55,25.64a116.19,116.19,0,0,1,33.32,43c6.63,14.65,10.62,29.95,11,46,.64,25.13,1.66,50.35-.32,75.39-3.34,42.16-23.11,74.7-60.06,96.35-14.17,8.29-29.67,12-45.5,14.87a4.16,4.16,0,0,0-3.15.35q-49.5,1.84-99,0A7.51,7.51,0,0,0,1440.88,465.49ZM1487,412.85c21.14,0,35.31.4,49.46-.08a65.38,65.38,0,0,0,63.42-65c.23-21.66.3-43.33-.06-65-.23-14.07-4-27.35-12.56-38.78-13.62-18.23-32.4-26.57-54.76-26.88-23.49-.33-47-.1-70.49-.1a122.76,122.76,0,0,0-16.93.93c-28.9,4.06-51.63,24.91-55.16,53.7a366.25,366.25,0,0,0-.15,85.78c3.39,29.92,25.88,50.69,55.77,54.67C1461.65,414.22,1477.86,412.43,1487,412.85Z" transform="translate(-22.74 -11.27)"/><path class="cls-2" d="M3256.62,307.14c-3.09,20.94-11.64,39.22-26.68,54.27A91.08,91.08,0,0,1,3193,384c-10.51,3.35-21.31,6.31-32.88,6.17-39.15-.5-78.31-.25-117.46-.1-3.93,0-4.95-1-4.89-4.9q.36-22,0-44c-.07-3.86,1.06-4.59,4.69-4.57q56.22.19,112.46.06c1.65,0,3.29-.25,4.94-.38a4.19,4.19,0,0,0,3.14-.37c16.44-2.65,29.69-10.27,37.21-25.58a36.19,36.19,0,0,0,3.75-15.92c0-9.33.22-18.67,0-28-.37-17.81-7.54-31.77-23.76-40.21a43.66,43.66,0,0,0-19.9-5q-61.5-.3-123-.09c-11.11,0-18.9,4.5-20.3,15.85a3.17,3.17,0,0,0-.39,3.14c-.1,2.32-.29,4.65-.29,7q0,105,.08,210c0,4-.72,5.34-5,5.25-14.83-.31-29.66-.22-44.49,0-3.31,0-4.1-.93-4.1-4.16q.15-108.24.11-216.48c0-9.83.42-19.76,4.44-28.83,7.5-16.93,19.41-29.93,36.5-37.74a78.9,78.9,0,0,1,32.63-7.18q63.24-.32,126.48,0c17.28.06,33.88,4.25,48.31,13.48,20.19,12.92,34.37,31.13,41.11,54.55.45,1.21.9,2.41,1.34,3.61l.69,3.39.66,2c3.91,19.57,2.7,39.3,2,59A4.38,4.38,0,0,0,3256.62,307.14Z" transform="translate(-22.74 -11.27)"/><path class="cls-2" d="M854,336c15.62-2.2,28.53-9,36.46-23,3.2-5.64,4.58-12.39,5-18.93a239.58,239.58,0,0,0,.17-27.46c-1.58-28.09-16.73-44.69-46.54-45.28-39.47-.77-79-.18-118.43-.19a28.32,28.32,0,0,0-13.27,2.79c-5.69,3-8.52,7.9-9,14.24-.17,2.66-.32,5.32-.32,8q0,105.43.1,210.88c0,4.47-1.12,5.44-5.43,5.35-14.65-.29-29.32-.24-44,0-3.6.05-4.32-1.07-4.31-4.47q.15-106.93.09-213.87c0-4,.24-8,.37-12a1.89,1.89,0,0,0,.25-2.14l.71-3.86c.48-.63.79-1.27.21-2,1.17-8.65,5.09-16.28,9.68-23.4,8.67-13.45,21.18-22.77,36-28.19a78,78,0,0,1,26.64-4.59q63,.06,125.92.08c17,0,33.24,3.93,47.53,12.83,22.58,14.07,37.82,34.24,43.49,60.54,6.11,28.27,6.48,56.84-1.66,84.71-5,17.18-15.69,31.2-30.19,42.29a106.89,106.89,0,0,1-42.34,19.47l-2.13.44a3.7,3.7,0,0,0-2.87.6l-2.14.3c-37.12,2-74.27.39-111.4.9-6.67.09-13.34-.1-20,.07-2.45.06-3.1-.74-3.09-3.11.09-15.67.18-31.33,0-47-.06-4,2.24-3.23,4.47-3.24H846c2,0,4-.29,5.93-.44A2.05,2.05,0,0,0,854,336Z" transform="translate(-22.74 -11.27)"/><path class="cls-3" d="M539.13,167.52c-4.8,5.24-11.47,7.6-17.42,11q-66.9,38-134,75.72a12.45,12.45,0,0,0-1.88,1.59,3.3,3.3,0,0,1-.62.15c-.07-2-.22-4-.22-6q0-54.81-.06-109.61c0-1.84.92-4-.94-5.56-3.37-2.29-6.66-4.69-10.11-6.84-28.66-17.92-57.4-35.71-86-53.76-3.61-2.28-6.11-2.41-9.76-.08-16.87,10.78-34,21.18-50.94,31.8-15.39,9.63-30.71,19.37-46.06,29.06,0,2.16-.15,4.33-.15,6.49q-.08,57.22-.13,114.45l-1.66-.05c-8.49-6.13-18-10.6-27-15.74q-55.67-31.5-111.53-62.73c-5.31-3-11-5.35-15.66-9.4-.1-1.84,1.22-2.51,2.54-3.32Q92.29,125.36,157,86q55.11-33.63,110.12-67.41c1.13-.69,2.54-1.06,3.47-1.95,8.57-8.2,16-6.07,25.43.08,26.1,17.09,53.05,32.88,79.65,49.22q36.7,22.55,73.38,45.15c26.45,16.25,52.95,32.43,79.34,48.77C532.13,162.12,536.5,163.66,539.13,167.52Z" transform="translate(-22.74 -11.27)"/><path class="cls-2" d="M2710,461.83c-19.63-2-36-9.91-48.88-25.27a73,73,0,0,1-16.39-33.86c-1.13-5.95-.49-12-.5-17.92q-.06-97,.2-194c0-10,7.45-19.91,21.18-22.49a48.39,48.39,0,0,1,9-.49q116,0,232-.11c4.22,0,5.66.74,5.54,5.34-.35,14.32-.3,28.67,0,43,.08,4.23-1.16,5.16-5.24,5.15-67.83-.13-135.66-.05-203.49-.18-4.14,0-5.58.6-5.56,5.3.21,53,.14,106,.13,159,0,4.8-.09,9.62,2.16,14,3.18,6.22,8.7,8.77,15.34,9.34,2.48.22,5,.28,7.48.28q91.74,0,183.49-.09c4.58,0,5.8,1.14,5.7,5.71-.31,14.49-.2,29,0,43.49,0,3.11-.59,4.28-4,4.27q-98-.24-196-.24a1.5,1.5,0,0,0-2.12-.26Z" transform="translate(-22.74 -11.27)"/><path class="cls-2" d="M2461.4,167.79c46.5,0,93,.06,139.49-.09,4.14,0,5.26,1,5.18,5.17-.28,14.33-.34,28.67,0,43,.12,4.68-1.43,5.34-5.6,5.32-35.82-.16-71.66,0-107.48-.2-4.25,0-5.09,1.14-5.09,5.2.13,76.82.06,153.65.2,230.47,0,4.44-1,5.8-5.58,5.69-14.16-.34-28.33-.3-42.49,0-4.27.09-5.48-.81-5.47-5.33.16-76.66.07-153.32.23-230,0-4.74-1-6.08-5.91-6-35.67.24-71.33,0-107,.23-4.26,0-5.18-1.2-5.1-5.26q.39-21.5,0-43c-.08-4.06.83-5.26,5.09-5.24C2368.41,167.86,2414.91,167.79,2461.4,167.79Z" transform="translate(-22.74 -11.27)"/><path class="cls-2" d="M1707,324.51c0-43.82.29-87.65-.19-131.46-.14-12.17,10.08-24,23.25-25,2.32-.19,4.66-.21,7-.21q116,0,231.94-.11c4.26,0,5.61.8,5.5,5.36-.35,14.32-.3,28.66,0,43,.09,4.21-1.12,5.16-5.23,5.15-67.82-.13-135.63,0-203.45-.2-4.56,0-5.7,1.12-5.69,5.7.15,76.81.07,153.62.2,230.44,0,4-.76,5.31-5.06,5.21-14.49-.3-29-.25-43.48,0-3.84.06-4.92-.86-4.91-4.84.16-44.32.1-88.64.1-133Z" transform="translate(-22.74 -11.27)"/><path class="cls-2" d="M2803,342c-26.49,0-53-.06-79.45.07-3.42,0-4.52-.74-4.47-4.34.21-15.15.16-30.31,0-45.47,0-3.11.6-4.27,4-4.26q80.46.18,160.91,0c3.6,0,4,1.39,3.94,4.36-.12,14.82-.21,29.65.05,44.47.07,4.05-.83,5.31-5.09,5.27C2856.28,341.86,2829.63,342,2803,342Z" transform="translate(-22.74 -11.27)"/><path class="cls-2" d="M1866.1,342c-26.5,0-53-.07-79.49.07-3.67,0-5.13-.57-5-4.76.29-14.82.21-29.66,0-44.49,0-3.44.42-4.86,4.47-4.84q80,.24,160,0c3.12,0,4.25.6,4.21,4q-.3,23,0,46c0,3.37-1,4-4.18,4C1919.43,341.91,1892.77,342,1866.1,342Z" transform="translate(-22.74 -11.27)"/><path class="cls-4" d="M384,134.84c1.86,1.58.94,3.72.94,5.56Q385,195.21,385,250c0,2,.15,4,.22,6L324.1,291Q304,302.46,284,314c-1.78,1.62-1,3.76-1,5.64q-.11,56.63-.08,113.24l-94.17,57.71c-2.51,1.54-5.16,2.87-7.74,4.3V373.14a38.71,38.71,0,0,0,4-1.79q17.56-10.43,35.07-21,31-18.66,61.92-37.4c1.78-1.63,1-3.77,1-5.65q.12-56.13.11-112.25c1.46-.76,3-1.45,4.37-2.29q30.82-18.42,61.63-36.88C360.74,149,372.36,141.88,384,134.84Z" transform="translate(-22.74 -11.27)"/><path class="cls-4" d="M490.16,313c1.48,1.35.81,3.12.81,4.69q0,55.41.11,110.8c0,3.26-1.05,4.89-3.88,6.54-27.7,16.17-55.19,32.69-83,48.75-6.63,3.84-12.91,8.41-20.2,11.08V374c19.46-11.06,39-22,58.38-33.19C458.38,331.64,474.25,322.28,490.16,313Z" transform="translate(-22.74 -11.27)"/><path class="cls-5" d="M181.08,373.12V494.87c-13.8-7.14-26.77-15.71-40.13-23.6-20.33-12-40.43-24.42-60.68-36.56-2-1.21-3.3-2.3-3.29-4.93q.18-58.39.18-116.79L90,320.5c20.86,12.19,41.66,24.5,62.61,36.5C162.06,362.45,171,368.83,181.08,373.12Z" transform="translate(-22.74 -11.27)"/><path class="cls-5" d="M384,374V494.87l-101-62q0-56.62.08-113.24c0-1.88-.82-4,1-5.64,1.73.13,3.06,1.11,4.48,2,20.33,12.3,40.72,24.49,61,36.86C361,359.85,372.94,366.24,384,374Z" transform="translate(-22.74 -11.27)"/><path class="cls-6" d="M384,374c-11.09-7.76-23-14.15-34.54-21.19-20.29-12.37-40.68-24.56-61-36.86-1.42-.86-2.75-1.84-4.48-2l40.1-23,61.13-35a3.3,3.3,0,0,0,.62-.15l63.48,34.28L488,311a11.66,11.66,0,0,1,2.15,2c-15.91,9.27-31.78,18.63-47.75,27.8C423,352,403.49,362.94,384,374Z" transform="translate(-22.74 -11.27)"/><path class="cls-6" d="M181.08,373.12c-10.1-4.29-19-10.67-28.47-16.1-21-12-41.75-24.33-62.61-36.52L77.13,313c10.74-6,21.45-12.09,32.2-18.09q34.94-19.52,69.89-39h1.66a8.6,8.6,0,0,0,1.68,1.78c8.52,4.81,17.08,9.52,25.6,14.33,17.31,9.78,34.48,19.82,52,29.29,7.26,3.94,14,8.89,21.88,11.67l-61.83,37.35q-17.49,10.55-35.07,20.95A38,38,0,0,1,181.08,373.12Z" transform="translate(-22.74 -11.27)"/><path class="cls-6" d="M384,134.84c-11.65,7-23.27,14.12-34.94,21.12q-30.78,18.48-61.63,36.88c-1.41.84-2.91,1.53-4.37,2.29L228.47,163l-47.31-28c15.35-9.69,30.67-19.43,46.06-29.06,17-10.62,34.07-21,50.94-31.8,3.65-2.33,6.15-2.2,9.76.08,28.58,18,57.32,35.84,86,53.76C377.35,130.15,380.64,132.55,384,134.84Z" transform="translate(-22.74 -11.27)"/><path class="cls-5" d="M181.16,135q23.66,14,47.31,27.95l54.6,32.16q0,56.12-.11,112.25c0,1.88.82,4-1,5.65-7.88-2.78-14.62-7.73-21.88-11.67-17.48-9.47-34.65-19.51-52-29.29-8.52-4.81-17.08-9.52-25.6-14.33a8.6,8.6,0,0,1-1.68-1.78q.06-57.23.13-114.45C181,139.35,181.11,137.18,181.16,135Z" transform="translate(-22.74 -11.27)"/></svg>
